<?xml version="1.0" standalone="no"?><!DOCTYPE svg PUBLIC "-//W3C//DTD SVG 1.1//EN" "http://www.w3.org/Graphics/SVG/1.1/DTD/svg11.dtd"><svg t="1534906579970" class="icon" style="" viewBox="0 0 1024 1024" version="1.1" xmlns="http://www.w3.org/2000/svg" p-id="1919" xmlns:xlink="http://www.w3.org/1999/xlink" width="64" height="64"><defs><style type="text/css"></style></defs><path d="M75.531896 783.058824a30.117647 30.117647 0 0 1-30.117647-30.117648V150.588235a30.117647 30.117647 0 0 1 60.235295 0v602.352941a30.117647 30.117647 0 0 1-30.117648 30.117648zM828.473073 543.804235a30.117647 30.117647 0 0 1-30.117647-30.117647V162.032941a30.117647 30.117647 0 0 1 60.235294 0v351.653647a30.117647 30.117647 0 0 1-30.117647 30.117647z" fill="#666666" p-id="1920"></path><path d="M452.002485 373.458824c-125.349647 0-230.339765-22.407529-303.706353-64.813177C82.940838 271.058824 45.414249 218.714353 45.414249 165.647059c0-35.237647 22.588235-85.413647 130.168471-124.144941C250.214249 14.757647 348.036367 0 452.002485 0s202.089412 14.757647 276.419764 41.502118C836.002485 80.233412 858.59072 130.409412 858.59072 165.647059c0 53.067294-37.526588 105.170824-102.881882 142.938353C682.342249 350.991059 577.352132 373.458824 452.002485 373.458824z m0-313.22353C240.576602 60.235294 105.649544 122.639059 105.649544 165.647059 105.649544 226.906353 213.109308 313.223529 452.002485 313.223529S798.355426 226.906353 798.355426 165.647059c0-43.008-134.927059-105.411765-346.352941-105.411765zM447.545073 563.501176a692.705882 692.705882 0 0 1-389.12-116.736 30.117647 30.117647 0 0 1 33.310118-50.236235 633.133176 633.133176 0 0 0 355.809882 106.736941c130.288941 0 246.964706-26.804706 346.714353-79.751529a30.117647 30.117647 0 1 1 28.190118 53.187765c-108.423529 57.645176-234.917647 86.799059-374.904471 86.799058zM458.086249 734.388706c-177.633882 0-310.151529-38.912-393.878588-115.651765a30.117647 30.117647 0 1 1 40.658824-44.393412c72.282353 66.258824 191.126588 99.809882 353.219764 99.809883a30.117647 30.117647 0 0 1 0 60.235294zM442.605779 910.456471c-178.898824 0-310.031059-46.320941-389.782588-137.697883a30.117647 30.117647 0 0 1 45.417411-39.634823c67.764706 77.703529 183.657412 117.097412 344.365177 117.097411a30.117647 30.117647 0 0 1 0 60.235295z" fill="#666666" p-id="1921"></path><path d="M738.120132 783.058824m-210.82353 0a210.823529 210.823529 0 1 0 421.647059 0 210.823529 210.823529 0 1 0-421.647059 0Z" fill="#41BE56" p-id="1922"></path><path d="M738.120132 1024a240.941176 240.941176 0 1 1 240.941176-240.941176 240.941176 240.941176 0 0 1-240.941176 240.941176z m0-421.647059a180.705882 180.705882 0 1 0 180.705882 180.705883 180.705882 180.705882 0 0 0-180.705882-180.705883z" fill="#666666" p-id="1923"></path><path d="M714.026014 859.015529h-1.807059a15.179294 15.179294 0 0 1-10.179764-6.023529l-60.235295-78.305882a15.058824 15.058824 0 0 1 24.094118-18.070589l50.537412 66.258824 133.662118-108.423529a15.058824 15.058824 0 0 1 18.974117 23.371294l-145.709176 118.181647a15.119059 15.119059 0 0 1-9.336471 3.011764z" fill="#FFFFFF" p-id="1924"></path></svg>