<?xml version="1.0" standalone="no"?><!DOCTYPE svg PUBLIC "-//W3C//DTD SVG 1.1//EN" "http://www.w3.org/Graphics/SVG/1.1/DTD/svg11.dtd"><svg t="1534906622696" class="icon" style="" viewBox="0 0 1024 1024" version="1.1" xmlns="http://www.w3.org/2000/svg" p-id="2634" xmlns:xlink="http://www.w3.org/1999/xlink" width="64" height="64"><defs><style type="text/css"></style></defs><path d="M858.450775 0H165.549225C110.792604 0 65.75912 44.009995 65.75912 100.301849v823.396302c0 54.756622 44.009995 100.301849 100.30185 100.301849h692.389805c54.756622 0 100.301849-44.009995 100.301849-100.301849V99.278361C958.24088 44.009995 913.207396 0 858.450775 0zM289.391304 217.491254h446.24088c13.305347 0 23.54023 10.746627 23.54023 23.54023 0 13.305347-10.746627 23.54023-23.54023 23.54023H289.391304c-13.305347 0-23.54023-13.305347-23.54023-23.54023 0-12.793603 9.723138-23.54023 23.54023-23.54023z m0 164.78161h280.435782c13.305347 0 23.54023 10.746627 23.54023 23.540229 0 13.305347-10.746627 23.54023-23.54023 23.54023H289.391304c-13.305347 0-23.54023-13.305347-23.54023-23.54023 0-12.793603 9.723138-23.54023 23.54023-23.540229z m138.682659 186.786606c0 13.305347-10.746627 23.54023-23.54023 23.54023H289.391304c-13.305347 0-23.54023-10.746627-23.54023-23.54023 0-13.305347 10.746627-23.54023 23.54023-23.54023H404.533733c12.793603 0 26.098951 9.723138 23.54023 23.54023z m343.38031 288.623688l-110.024988-52.197901-110.024987 52.197901 26.09895-104.395802L496.647676 648.37981h110.024988l54.756621-104.395802 54.756622 104.395802h110.024988l-81.367317 104.395802 26.610695 104.907546z" fill="#707070" p-id="2635"></path></svg>