<?xml version="1.0" standalone="no"?><!DOCTYPE svg PUBLIC "-//W3C//DTD SVG 1.1//EN" "http://www.w3.org/Graphics/SVG/1.1/DTD/svg11.dtd"><svg t="1534857714616" class="icon" style="" viewBox="0 0 1024 1024" version="1.1" xmlns="http://www.w3.org/2000/svg" p-id="3582" xmlns:xlink="http://www.w3.org/1999/xlink" width="64" height="64"><defs><style type="text/css"></style></defs><path d="M80.2 480.3h862.9c8.8 0 16 7.2 16 16s-7.2 16-16 16H80.2c-8.8 0-16-7.2-16-16 0-8.9 7.2-16 16-16zM927.2 735.9c17.7 0 32 14.3 32 32v159.8c0 17.7-14.3 32-32 32s-32-14.3-32-32V767.9c0-17.7 14.3-32 32-32z" p-id="3583" fill="#707070"></path><path d="M767.4 895.7h160c17.7 0 32 14.3 32 32s-14.3 32-32 32h-160c-17.7 0-32-14.3-32-32 0-17.6 14.3-32 32-32zM927.2 64.8c17.7 0 32 14.3 32 32v159.8c0 17.7-14.3 32-32 32s-32-14.3-32-32V96.7c0-17.6 14.3-31.9 32-31.9z" p-id="3584" fill="#707070"></path><path d="M767.4 64.8h160c17.7 0 32 14.3 32 32s-14.3 32-32 32h-160c-17.7 0-32-14.3-32-32s14.3-32 32-32zM96.2 64.8h160c17.7 0 32 14.3 32 32s-14.3 32-32 32h-160c-17.7 0-32-14.3-32-32s14.3-32 32-32zM96.2 735.9c17.7 0 32 14.3 32 32v159.8c0 17.7-14.3 32-32 32s-32-14.3-32-32V767.9c0-17.7 14.3-32 32-32z" p-id="3585" fill="#707070"></path><path d="M96.2 895.7h160c17.7 0 32 14.3 32 32s-14.3 32-32 32h-160c-17.7 0-32-14.3-32-32 0-17.6 14.3-32 32-32zM96.2 64.8c17.7 0 32 14.3 32 32v159.8c0 17.7-14.3 32-32 32s-32-14.3-32-32V96.7c0-17.6 14.3-31.9 32-31.9z" p-id="3586" fill="#707070"></path></svg>