<?xml version="1.0" standalone="no"?><!DOCTYPE svg PUBLIC "-//W3C//DTD SVG 1.1//EN" "http://www.w3.org/Graphics/SVG/1.1/DTD/svg11.dtd"><svg t="1535022024050" class="icon" style="" viewBox="0 0 1024 1024" version="1.1" xmlns="http://www.w3.org/2000/svg" p-id="2028" xmlns:xlink="http://www.w3.org/1999/xlink" width="64" height="64"><defs><style type="text/css"></style></defs><path d="M511.980564 1023.949008C229.696844 1023.949008 0.000061 794.253225 0.000061 511.968505 0.000061 229.641791 229.695844 0 511.980564 0s511.958506 229.642791 511.958507 511.968505c0 282.28472-229.674786 511.980503-511.958507 511.980503z" fill="#1FAD34" p-id="2029"></path><path d="M803.35989 337.72222c-12.811036-12.811036-33.563854-12.811036-46.37489 0L446.878546 647.869668 266.954132 467.964252c-12.811036-12.811036-33.563854-12.811036-46.37489 0-12.811036 12.811036-12.811036 33.563854 0 46.374889l203.113859 203.092862c6.405018 6.405018 14.796731 9.607527 23.187444 9.607527s16.782427-3.202509 23.187445-9.607527l333.2919-333.334893c12.811036-12.811036 12.811036-33.563854 0-46.37489z" fill="#F0F0F0" p-id="2030"></path></svg>