<?xml version="1.0" standalone="no"?><!DOCTYPE svg PUBLIC "-//W3C//DTD SVG 1.1//EN" "http://www.w3.org/Graphics/SVG/1.1/DTD/svg11.dtd"><svg t="1534851407570" class="icon" style="" viewBox="0 0 1282 1024" version="1.1" xmlns="http://www.w3.org/2000/svg" p-id="2804" xmlns:xlink="http://www.w3.org/1999/xlink" width="80.125" height="64"><defs><style type="text/css"></style></defs><path d="M1236.628095 409.23114a263.208634 263.208634 0 0 0-80.987272-59.206604L1083.24311 150.317285c-19.019738-61.353994-75.158643-150.317285-175.472422-150.317285H374.29771c-100.31378 0-156.452685 88.042981-175.472423 150.317285l-72.397713 199.707251a263.208634 263.208634 0 0 0-80.987272 59.206604 193.878621 193.878621 0 0 0-45.095185 122.707988v206.762959a49.389965 49.389965 0 0 0 33.744697 52.764435V920.30991a102.1544 102.1544 0 0 0 102.154399 102.46117h70.863864A102.1544 102.1544 0 0 0 308.955707 920.30991v-57.979525s214.738979 18.406198 331.311567 18.406198 331.311567-18.406198 331.311567-18.406198V920.30991A102.1544 102.1544 0 0 0 1074.040011 1023.998159h71.170633A102.1544 102.1544 0 0 0 1247.978584 920.30991v-128.843388a49.389965 49.389965 0 0 0 33.744697-53.071205v-206.762959a193.878621 193.878621 0 0 0-45.095186-122.401218zM248.215252 168.109943C261.713131 122.707988 303.127077 61.353994 372.15032 61.353994h537.767757c69.023243 0 110.130419 61.353994 122.707988 106.14241l66.875854 180.073972h-920.30991zM215.084096 968.472795H129.188504a39.880096 39.880096 0 0 1-40.186866-40.493636v-117.186129c8.282789 2.76093 165.655784 39.880096 165.655784 39.880096v76.999263A40.493636 40.493636 0 0 1 215.084096 968.472795z m978.596204-40.493636a39.880096 39.880096 0 0 1-40.186866 40.493636h-85.895592a40.493636 40.493636 0 0 1-40.186866-40.800406v-76.999263s157.372995-37.119166 165.655784-39.880096zM1227.424996 736.247928s-198.173401 81.907582-586.850952 81.907582S54.336632 736.247928 54.336632 736.247928v-205.22911c0-37.732706 43.561336-122.707988 118.106438-122.707988h937.182258c74.545103 0 118.413208 86.202362 118.106438 122.707988C1227.424996 557.707805 1227.424996 736.247928 1227.424996 736.247928z" p-id="2805" fill="#bfbfbf"></path><path d="M301.593227 600.348831m-63.808153 0a63.808154 63.808154 0 1 0 127.616307 0 63.808154 63.808154 0 1 0-127.616307 0Z" p-id="2806" fill="#bfbfbf"></path><path d="M980.475171 600.348831m-63.808154 0a63.808154 63.808154 0 1 0 127.616307 0 63.808154 63.808154 0 1 0-127.616307 0Z" p-id="2807" fill="#bfbfbf"></path></svg>