<?xml version="1.0" standalone="no"?><!DOCTYPE svg PUBLIC "-//W3C//DTD SVG 1.1//EN" "http://www.w3.org/Graphics/SVG/1.1/DTD/svg11.dtd"><svg t="1534834559177" class="icon" style="" viewBox="0 0 1241 1024" version="1.1" xmlns="http://www.w3.org/2000/svg" p-id="3583" xmlns:xlink="http://www.w3.org/1999/xlink" width="77.5625" height="64"><defs><style type="text/css"></style></defs><path d="M618.502691 207.65337l-419.522531 337.263211v289.449981c0 93.055855 75.57575 168.631605 168.117485 168.631605h96.14058v-249.348562c0-46.270867 37.530815-84.315803 83.801682-84.315803h147.552654c46.270867 0 84.315803 38.044935 84.315803 84.315803v249.348562h95.626459c92.541735 0 168.631605-75.57575 168.631605-168.631605V545.430702L618.502691 207.65337z" p-id="3584"></path><path d="M1229.79226 478.080884S1066.301862 353.149542 1066.301862 348.008334L1064.245379 172.693159c0-28.790762-26.734279-51.412075-59.123886-51.412075h-28.790762c-32.903728 0-59.638007 22.621313-59.638007 51.412075l2.056483 58.095645L637.525158 7.146278a31.361366 31.361366 0 0 0-39.587297 0L11.326087 478.595004a31.361366 31.361366 0 0 0 40.101418 49.355592L616.960328 72.439613l389.703527 310.528932 183.541107 143.95381A31.361366 31.361366 0 1 0 1229.79226 478.595004z" p-id="3585"></path></svg>