<?xml version="1.0" standalone="no"?><!DOCTYPE svg PUBLIC "-//W3C//DTD SVG 1.1//EN" "http://www.w3.org/Graphics/SVG/1.1/DTD/svg11.dtd"><svg t="1534834593689" class="icon" style="" viewBox="0 0 1024 1024" version="1.1" xmlns="http://www.w3.org/2000/svg" p-id="5640" xmlns:xlink="http://www.w3.org/1999/xlink" width="64" height="64"><defs><style type="text/css"></style></defs><path d="M968.68352 436.10112l-61.37856 0c-19.10784 0-39.38304-14.92992-45.09696-33.23904l-25.10848-61.62432c-8.9088-16.85504-5.18144-41.82016 8.43776-55.37792l43.02848-43.13088c13.6192-13.49632 13.6192-35.6352 0-49.19296l-58.08128-58.01984c-13.49632-13.43488-35.69664-13.43488-49.23392 0L738.5088 178.21696c-13.59872 13.43488-38.48192 17.22368-55.35744 8.21248L621.17888 160.768c-18.30912-5.75488-33.28-26.09152-33.28-45.17888L587.89888 55.33696c0-19.1488-15.6672-34.79552-34.77504-34.79552l-82.20672 0c-19.10784 0-34.77504 15.6672-34.77504 34.79552l0 60.23168c0 19.08736-14.97088 39.424-33.30048 45.17888l-62.03392 25.68192c-16.83456 8.99072-41.69728 5.2224-55.31648-8.21248l-43.49952-43.56096c-13.53728-13.43488-35.69664-13.43488-49.23392 0L134.69696 192.67584c-13.55776 13.68064-13.55776 35.81952 0 49.31584l43.88864 43.80672c13.53728 13.55776 17.28512 38.58432 8.33536 55.37792l-25.14944 61.68576c-5.61152 18.30912-25.92768 33.23904-44.99456 33.23904l-61.44 0C36.22912 436.10112 20.48 451.82976 20.48 471.01952l0 82.0224c0 19.21024 15.74912 34.85696 34.85696 34.85696l62.09536 0c19.1488 0 39.54688 14.92992 45.2608 33.1776l25.2928 60.53888c8.99072 16.91648 5.24288 41.75872-8.21248 55.37792l-44.3392 44.21632c-13.55776 13.6192-13.55776 35.69664 0 49.2544l58.10176 58.08128c13.53728 13.6192 35.6352 13.6192 49.23392 0l44.6464-44.58496c13.49632-13.55776 38.46144-17.34656 55.37792-8.3968l60.06784 24.71936c18.3296 5.69344 33.30048 25.98912 33.30048 45.17888l0 63.1808c0 19.1488 15.6672 34.79552 34.77504 34.79552l82.20672 0c19.10784 0 34.77504-15.6672 34.77504-34.79552l0-63.1808c0-19.21024 14.97088-39.48544 33.28-45.17888l60.08832-24.71936c16.91648-8.94976 41.84064-5.16096 55.41888 8.3968l43.8272 43.80672c13.53728 13.6192 35.7376 13.6192 49.23392 0.06144l58.08128-58.08128c13.55776-13.49632 13.55776-35.69664 0-49.2544l-43.52-43.49952c-13.53728-13.6192-17.24416-38.46144-8.13056-55.37792l25.16992-60.53888c5.7344-18.24768 26.15296-33.1776 45.30176-33.1776l62.07488 0c19.1488 0 34.83648-15.6672 34.83648-34.85696l0-82.0224C1003.52 451.82976 987.83232 436.10112 968.68352 436.10112zM511.93856 679.09632c-93.12256 0-168.63232-75.42784-168.63232-168.59136 0-93.24544 75.50976-168.71424 168.63232-168.71424 93.26592 0 168.77568 75.48928 168.77568 168.71424C680.71424 603.68896 605.20448 679.09632 511.93856 679.09632z" p-id="5641"></path></svg>