<?xml version="1.0" standalone="no"?><!DOCTYPE svg PUBLIC "-//W3C//DTD SVG 1.1//EN" "http://www.w3.org/Graphics/SVG/1.1/DTD/svg11.dtd"><svg t="1534848745056" class="icon" style="" viewBox="0 0 1024 1024" version="1.1" xmlns="http://www.w3.org/2000/svg" p-id="2083" xmlns:xlink="http://www.w3.org/1999/xlink" width="64" height="64"><defs><style type="text/css"></style></defs><path d="M64.278 447.722a447.722 447.722 0 1 0 895.444 0 447.722 447.722 0 1 0-895.444 0z" fill="#228ACC" p-id="2084"></path><path d="M147.336 447.722a364.664 364.664 0 1 0 729.328 0 364.664 364.664 0 1 0-729.328 0z" fill="#F7F8F8" p-id="2085"></path><path d="M605.646 861.785L512 1024l-93.646-162.215z" fill="#228ACC" p-id="2086"></path><path d="M281.046 383.663s-40.003 9.116-46.592 43.054-3.038 71.462-3.038 71.462l11.146 13.627 13.189 7.597s12.97-37.476 34.837-48.622 52.755-3.039 63.391 11.645 27.86 55.708 29.38 69.894 4.558 15.705 4.558 15.705l87.617 22.28 9.627 3.04s-2.03-25.32 9.116-50.142 21.783-41.936 42.544-45.024 54.202-4.607 74.963 17.674 42.544 69.384 42.544 69.384l4.048 8.107s58.747-37.985 78.5-55.21 50.64-41.535 66.855-62.807 18.744-45.072 18.744-45.072-19.255-51.15-73.444-56.22-337.812-18.743-337.812-18.743l-130.173 28.37z" fill="#4290CE" p-id="2087"></path><path d="M269.912 389.23l24.31-62.807 431.009-28.359 11.147 13.164 21.77 69.384s-44.562 58.747-85.587 69.383-158.02 13.675-267.93-13.164" fill="#3481C4" p-id="2088"></path><path d="M408.436 250.451s-85.089 32.674-97.244 48.622c-7.597 9.967-19.048 19.947-20.458 28.99-0.839 5.422 1.933 10.515 11.341 15.073 25.077 12.156 87.374 15.96 158.021 21.272s198.292 6.078 219.564-6.843 56.985-28.298 52.427-48.342 3.804-24.59-28.116-31.434-161.072-23.8-198.037-24.311-37.998-4.546-97.498-3.027z" fill="#5AA6DC" p-id="2089"></path><path d="M269.9 551.712a71 47.868 90 1 0 95.736 0 71 47.868 90 1 0-95.736 0z" fill="#4794D0" p-id="2090"></path><path d="M501.388 593.344a77.078 61.02 90 1 0 122.041 0 77.078 61.02 90 1 0-122.04 0z" fill="#4391CF" p-id="2091"></path><path d="M295.949 552.887a28.456 19.181 86.526 1 0 38.292-2.325 28.456 19.181 86.526 1 0-38.292 2.325zM536.975 597.596a31.738 25.065 86.968 1 0 50.059-2.651 31.738 25.065 86.968 1 0-50.06 2.651z" fill="#9CCBEE" p-id="2092"></path><path d="M730.373 336.305s-34.886 49.521-115.222 60.522l-20.08-4.4 8.447 45.12s60.255 9.908 136.36-50.627c4.243-12.094-9.505-50.615-9.505-50.615z" fill="#A0D0F1" p-id="2093"></path><path d="M793.605 504.196l-77.49 70.927s56.826 33.574 77.49-70.927z" fill="#3481C4" p-id="2094"></path></svg>