<?xml version="1.0" standalone="no"?><!DOCTYPE svg PUBLIC "-//W3C//DTD SVG 1.1//EN" "http://www.w3.org/Graphics/SVG/1.1/DTD/svg11.dtd"><svg t="1534907523324" class="icon" style="" viewBox="0 0 1024 1024" version="1.1" xmlns="http://www.w3.org/2000/svg" p-id="4313" xmlns:xlink="http://www.w3.org/1999/xlink" width="64" height="64"><defs><style type="text/css"></style></defs><path d="M634.88 853.333333v85.333334h303.786667l-10.24-85.333334z" fill="#ffffff" p-id="4314"></path><path d="M935.253333 989.866667h-310.613333c-30.72 0-54.613333-23.893333-54.613333-54.613334v-85.333333c0-30.72 23.893333-54.613333 54.613333-54.613333h34.133333l58.026667-102.4c-30.72-27.306667-44.373333-68.266667-30.72-105.813334s51.2-64.853333 88.746667-64.853333c40.96 0 78.506667 23.893333 92.16 64.853333s3.413333 81.92-30.72 105.813334l58.026666 102.4h34.133334c30.72 0 54.613333 23.893333 54.613333 54.613333v85.333333c6.826667 30.72-17.066667 54.613333-47.786667 54.613334z m-153.6-399.36c-17.066667 0-30.72 13.653333-30.72 30.72s13.653333 30.72 30.72 30.72 30.72-13.653333 30.72-30.72-13.653333-30.72-30.72-30.72z m0 126.293333l-47.786666 78.506667h92.16L781.653333 716.8z m143.36 167.253333c0-10.24-10.24-20.48-20.48-20.48h-245.76c-10.24 0-20.48 10.24-20.48 20.48v20.48c0 10.24 10.24 20.48 20.48 20.48h245.76c10.24 0 20.48-10.24 20.48-20.48v-20.48z m-460.8-249.173333c10.24 0 20.48 6.826667 27.306667 17.066667 6.826667 10.24 6.826667 23.893333 0 30.72-6.826667 10.24-17.066667 17.066667-27.306667 17.066666H228.693333c-10.24 0-20.48-6.826667-27.306666-17.066666-6.826667-10.24-6.826667-23.893333 0-30.72s17.066667-17.066667 27.306666-17.066667h235.52z m-269.653333-276.48c0-17.066667 13.653333-30.72 30.72-30.72h477.866667c10.24 0 20.48 6.826667 27.306666 17.066667 6.826667 10.24 6.826667 23.893333 0 30.72-6.826667 10.24-17.066667 17.066667-27.306666 17.066666h-477.866667c-17.066667-3.413333-30.72-17.066667-30.72-34.133333z m392.533333 184.32H228.693333c-6.826667 0-17.066667-3.413333-23.893333-10.24-6.826667-6.826667-10.24-13.653333-10.24-23.893333 0-17.066667 13.653333-30.72 30.72-30.72h358.4c17.066667 0 30.72 13.653333 30.72 30.72 0 6.826667-3.413333 17.066667-10.24 23.893333-3.413333 6.826667-10.24 10.24-17.066667 10.24z m279.893334-61.44c-17.066667 0-30.72-13.653333-30.72-30.72V119.466667c0-10.24-10.24-20.48-20.48-20.48H119.466667c-10.24 0-20.48 10.24-20.48 20.48v785.066666c0 10.24 10.24 20.48 20.48 20.48h361.813333c17.066667 0 30.72 13.653333 30.72 30.72s-13.653333 30.72-30.72 30.72H88.746667c-30.72 3.413333-54.613333-20.48-54.613334-51.2V88.746667C34.133333 58.026667 58.026667 34.133333 88.746667 34.133333h757.76c30.72 0 54.613333 23.893333 54.613333 54.613334v361.813333c0 13.653333-17.066667 30.72-34.133333 30.72z" fill="#ffffff" p-id="4315"></path></svg>