<?xml version="1.0" standalone="no"?><!DOCTYPE svg PUBLIC "-//W3C//DTD SVG 1.1//EN" "http://www.w3.org/Graphics/SVG/1.1/DTD/svg11.dtd"><svg t="1531379922537" class="icon" style="" viewBox="0 0 1024 1024" version="1.1" xmlns="http://www.w3.org/2000/svg" p-id="1936" xmlns:xlink="http://www.w3.org/1999/xlink" width="200" height="200"><defs><style type="text/css"></style></defs><path d="M1018.88 727.552v-588.8c0-72.192-50.688-122.368-123.904-122.368H129.024c-12.8 0-24.064 1.024-34.304 3.584C41.984 33.28 5.12 81.408 5.12 137.728v591.36c0 6.144 1.024 11.776 1.536 18.432v0.512c6.656 49.664 50.176 102.4 119.296 102.4h1.536c75.264-1.024 151.552-0.512 225.28-0.512H419.84c11.776 0 23.552 0.512 34.816 1.024 5.632 0.512 11.264 0.512 16.896 1.024l9.728 0.512 1.536 58.88v43.008h-256c-25.088 0-30.72 5.632-30.72 29.696v5.12c0 17.408 7.68 25.6 25.088 25.6h564.224c7.168 0 14.848-2.56 18.944-6.144 10.752-9.216 9.728-22.016 4.608-40.448-2.048-6.656-5.12-12.8-25.6-12.8h-243.2v-10.24-18.944c0-16.896 0.512-32.256-1.024-48.128-0.512-6.144 0-14.336 5.632-20.48 5.632-6.144 13.824-6.656 21.504-6.656 98.304 0.512 201.728 0.512 324.608 0 11.264 0 22.528 0 32.256-2.048 57.856-13.824 95.744-61.952 95.744-121.344z m-139.264 61.952h-732.16c-53.248 0-83.968-30.208-83.968-82.432V158.208c0-49.152 31.744-80.384 81.408-80.384h735.232c49.152 0 81.408 31.744 81.408 80.384v551.936c-0.512 48.64-31.744 79.36-81.92 79.36z" p-id="1937" fill="#999999"></path><path d="M724.48 296.96c-15.872 0-28.16 15.36-28.16 33.792v208.384c0 18.432 12.8 33.792 28.16 33.792s28.16-15.36 28.16-33.792v-208.384c0.512-18.432-12.288-33.792-28.16-33.792zM548.864 271.36v326.656c0 18.432 12.8 33.792 28.16 33.792 15.872 0 28.16-15.36 28.16-33.792V271.36c0-18.432-12.8-33.792-28.16-33.792-15.36 0.512-28.16 15.36-28.16 33.792z" p-id="1938" fill="#999999"></path><path d="M475.648 271.36c0-18.432-12.8-33.792-28.16-33.792s-28.16 15.36-28.16 33.792v326.656c0 18.432 12.8 33.792 28.16 33.792s28.16-15.36 28.16-33.792V271.36zM299.52 296.96c-15.872 0-28.16 15.36-28.16 33.792v208.384c0 18.432 12.8 33.792 28.16 33.792 15.872 0 28.16-15.36 28.16-33.792v-208.384c0-18.432-12.288-33.792-28.16-33.792z" p-id="1939" fill="#999999"></path></svg>