<?xml version="1.0" standalone="no"?><!DOCTYPE svg PUBLIC "-//W3C//DTD SVG 1.1//EN" "http://www.w3.org/Graphics/SVG/1.1/DTD/svg11.dtd"><svg t="1528527790748" class="icon" style="" viewBox="0 0 1024 1024" version="1.1" xmlns="http://www.w3.org/2000/svg" p-id="2575" xmlns:xlink="http://www.w3.org/1999/xlink" width="200" height="200"><defs><style type="text/css"></style></defs><path d="M965.559354 980.223345c-0.939441-19.493397-2.851874-38.986795-6.173468-58.480192-6.643189-39.456515-18.553957-77.034149-35.665201-113.16907-29.961453-63.2445-71.800121-116.490664-126.488999-159.772046-42.811661-34.222488-90.354078-59.922905-142.660802-77.034149-3.321594-0.939441-6.643189-2.382154-9.998335-3.321594 0.939441-0.46972 1.442713-0.939441 1.912433-0.939441 23.284712-11.407496 45.160263-25.666866 64.687212-42.811661 28.51874-24.727425 51.837004-54.219157 69.417968-87.971925 24.727425-47.542417 35.665201-97.970259 33.283047-151.686144-0.939441-16.171803-2.851874-32.343606-6.173468-48.045689-11.877216-54.688878-37.577634-102.231294-76.094708-143.130523-16.641523-17.580964-35.665201-33.283047-56.098039-46.133256-44.220822-28.049019-92.266511-43.751102-144.103515-47.072696-14.25937-0.939441-29.022012-0.939441-43.281382 0.46972-16.171803 1.442713-32.343606 3.791315-48.045689 7.616181-52.306724 12.850209-98.43998 37.577634-137.896495 74.651995C276.513048 107.617009 255.576938 135.196308 239.908407 166.566922c-23.284712 46.602976-33.752767 95.588106-31.370614 147.425109 0.46972 14.25937 2.382154 28.51874 5.234028 42.308389 10.937776 55.158598 35.19548 103.204287 73.242834 144.573235 25.197145 27.579299 55.158598 49.92457 88.441645 66.566094 0.46972 0.46972 1.442713 0.46972 1.912433 1.442713-10.468055 3.321594-21.405831 6.643189-31.370614 10.937776-10.468055 4.294587-20.93611 8.555622-30.900893 13.319929C257.489371 620.719466 208.034521 658.263548 166.195852 706.309237c-22.345271 25.666866-41.368948 53.749437-57.540752 83.710889-19.963118 37.107913-33.752767 76.564429-42.308389 117.933377-3.791315 18.084236-6.643189 36.604641-7.616181 54.688878-0.46972 7.146461-0.939441 14.25937-1.442713 20.93611 0 6.643189-0.939441 12.850209 0.46972 19.493397 2.382154 12.380488 14.25937 20.93611 27.109579 19.963118 12.380488-0.939441 22.345271-11.407496 22.814992-23.787984 0.46972-8.085902 0.46972-16.641523 0.939441-24.727425 0.46972-12.380488 1.912433-24.257705 3.791315-36.604641 3.791315-24.257705 9.495063-48.515409 18.084236-71.800121 19.023677-53.749437 48.045689-100.822133 87.502204-141.721361 26.170138-27.109579 55.158598-50.394291 87.971925-69.417968 28.049019-16.641523 57.540752-29.491732 88.441645-38.517075 21.875551-6.643189 44.220822-11.407496 67.035814-14.25937 14.72909-1.912433 29.491732-2.851874 44.220822-2.851874 0.939441 0 1.912433-0.46972 2.851874 0 5.703748 0 8.085902 0 8.555622 0 0.46972 0 1.442713 0 1.912433 0.46972 5.234028 0 10.468055 0 15.702083 0.46972 17.111244 0.939441 34.72576 2.851874 51.837004 6.173468 35.665201 6.643189 69.887688 17.580964 102.231294 33.283047 53.246165 25.666866 98.9097 61.332066 136.957054 106.995602 32.813327 39.959787 57.071031 84.18061 72.773114 133.63546 8.085902 25.666866 13.319929 51.837004 16.171803 78.946582 1.442713 13.319929 1.912433 26.639858 1.912433 39.959787 0.46972 13.789649 11.407496 24.727425 25.666866 24.727425 13.789649 0 24.727425-11.407496 24.727425-24.727425C965.559354 991.630841 965.559354 985.927093 965.559354 980.223345L965.559354 980.223345zM556.130905 544.155037c-14.25937 2.382154-28.51874 3.791315-42.811661 4.294587-0.46972 0-1.442713 0-2.851874 0-0.939441 0-2.382154 0-2.382154 0-2.382154 0-4.294587 0-6.643189 0-9.998335 0.46972-18.553957-1.442713-28.049019-2.851874-26.639858-3.791315-51.837004-11.877216-76.094708-24.257705-10.468055-5.234028-20.432838-10.937776-29.961453-17.580964-21.875551-15.232362-41.368948-33.283047-57.540752-54.688878-17.580964-22.814992-30.431173-48.045689-38.986795-75.624988-6.643189-20.93611-9.998335-41.838669-11.407496-63.71422-0.46972-14.25937 0-29.022012 1.912433-43.281382 4.294587-30.431173 13.319929-58.983464 28.51874-85.589771 14.72909-26.639858 33.752767-50.394291 57.540752-69.887688 20.432838-17.580964 43.281382-31.370614 68.478527-41.368948 26.639858-10.937776 54.219157-16.641523 82.737897-18.084236 10.937776-0.46972 21.875551-0.46972 32.813327 0.46972 11.877216 0.939441 23.787984 2.851874 35.19548 5.234028 25.666866 5.703748 49.92457 15.232362 72.773114 28.51874 20.432838 11.877216 38.517075 26.170138 55.158598 43.751102 9.495063 10.468055 18.553957 20.93611 26.639858 32.813327 13.789649 20.432838 24.727425 42.811661 31.873886 66.566094 6.173468 20.432838 9.495063 40.899228 10.468055 62.305059 0.46972 9.998335 0 20.432838-0.939441 30.431173-0.939441 12.850209-3.321594 25.666866-6.173468 38.047354-5.703748 22.345271-13.789649 43.751102-25.666866 63.71422-14.72909 25.197145-32.813327 47.542417-55.158598 66.096374-16.641523 14.25937-35.19548 26.170138-55.158598 35.665201C599.412286 533.217262 578.006456 540.330171 556.130905 544.155037L556.130905 544.155037z" p-id="2576" fill="#b4b4b4"></path></svg>