<?xml version="1.0" standalone="no"?><!DOCTYPE svg PUBLIC "-//W3C//DTD SVG 1.1//EN" "http://www.w3.org/Graphics/SVG/1.1/DTD/svg11.dtd"><svg t="1533524292615" class="icon" style="" viewBox="0 0 1024 1024" version="1.1" xmlns="http://www.w3.org/2000/svg" p-id="1117" xmlns:xlink="http://www.w3.org/1999/xlink" width="64" height="64"><defs><style type="text/css"></style></defs><path d="M748.435 853.076c9.55 16.14 4.17 37.659-12.508 46.737-16.409 9.55-37.187 3.9-46.467-12.508-10.02-16.14-4.17-37.188 11.97-46.737 16.946-9.48 37.456-3.63 47.005 12.508zM546.56 926.04c0 18.627-15.4 34.228-34.766 34.228-18.628 0-34.228-15.198-34.228-34.228v-24.007c0-19.098 15.668-34.296 34.228-34.296 19.097 0 34.766 15.197 34.766 34.296v24.007z m-211.424-38.668c-9.751 16.879-30.799 22.26-47.006 12.71-16.609-9.348-22.528-30.328-12.708-47.006l25.485-44.584c9.819-16.409 30.867-22.058 47.478-12.71 16.14 9.549 22.056 30.867 12.238 47.006l-25.487 44.584zM171.12 748.844c-16.609 9.28-37.925 3.698-47.004-12.71-9.751-16.139-4.17-37.455 12.239-47.004l68.524-39.675c16.409-9.08 37.659-3.968 47.006 12.708 9.28 16.14 3.63 37.457-12.71 47.006l-68.055 39.675zM98.225 546.43c-19.098 0-34.228-15.4-34.228-34.228 0-19.097 15.13-34.497 34.228-34.497h106.72c19.099 0 34.23 15.4 34.23 34.228 0 19.097-15.131 34.497-34.23 34.497H98.226z m38.196-211.692c-16.677-9.28-22.056-30.33-12.239-46.737 9.08-16.61 30.328-22.26 47.006-12.71l115.932 67.314c16.409 9.348 21.789 30.328 12.71 46.535-9.751 16.61-30.799 21.99-46.938 12.71L136.42 334.737z m139-163.95L356.184 311c9.818 16.409 30.867 22.258 47.207 12.508 16.41-9.28 21.789-30.598 12.24-47.006L334.6 136.561c-9.28-16.206-30.33-22.056-46.469-12.508-16.677 9.548-22.056 30.596-12.71 46.736z m202.145-72.424c0-18.628 15.668-34.498 34.228-34.498 19.097 0 34.766 15.467 34.766 34.498v161.527c0 19.098-15.4 34.499-34.766 34.766-18.628 0-34.228-15.13-34.228-34.766V98.364zM688.99 136.56c9.818-16.61 30.598-22.056 47.005-12.71 16.61 9.281 22.528 30.33 12.709 47.006l-80.966 140.21c-9.145 16.342-30.664 22.192-47.005 12.71-16.408-9.548-21.788-30.867-12.508-47.275l80.765-139.94z m164.486 138.73l-140.48 80.967c-16.408 9.28-22.057 30.328-12.709 47.004 9.751 16.14 30.8 21.52 47.006 12.51l140.48-80.967c16.139-9.28 22.056-30.327 12.238-46.736-9.348-16.678-30.463-22.595-46.535-12.777z m72.155 202.414c19.3 0 34.498 15.4 34.228 34.497 0 18.828-14.928 34.228-34.228 34.228H763.902c-18.627 0-34.296-15.4-34.296-34.497 0-18.828 15.669-34.228 34.296-34.228h161.729z" fill="#999999" p-id="1118"></path></svg>